<mxfile host="Electron" agent="Mozilla/5.0 (X11; Linux x86_64) AppleWebKit/537.36 (KHTML, like Gecko) draw.io/24.7.17 Chrome/128.0.6613.36 Electron/32.0.1 Safari/537.36" version="24.7.17">
  <diagram name="Página-1" id="FXrEpwq64N0sqPLMW4XI">
    <mxGraphModel dx="5580" dy="1603" grid="0" gridSize="10" guides="1" tooltips="1" connect="1" arrows="1" fold="1" page="0" pageScale="1" pageWidth="1100" pageHeight="850" math="0" shadow="0">
      <root>
        <mxCell id="0" />
        <mxCell id="1" parent="0" />
        <mxCell id="XUvlI8r9rAUjjNbDGMf4-1" style="edgeStyle=orthogonalEdgeStyle;rounded=0;orthogonalLoop=1;jettySize=auto;html=1;entryX=0.5;entryY=0;entryDx=0;entryDy=0;endArrow=open;endFill=0;" edge="1" parent="1" source="XUvlI8r9rAUjjNbDGMf4-2" target="XUvlI8r9rAUjjNbDGMf4-3">
          <mxGeometry relative="1" as="geometry" />
        </mxCell>
        <mxCell id="XUvlI8r9rAUjjNbDGMf4-2" value="" style="ellipse;whiteSpace=wrap;html=1;aspect=fixed;fillColor=#000000;" vertex="1" parent="1">
          <mxGeometry x="219.25" y="1583" width="30" height="30" as="geometry" />
        </mxCell>
        <mxCell id="XUvlI8r9rAUjjNbDGMf4-6" style="edgeStyle=none;curved=1;rounded=0;orthogonalLoop=1;jettySize=auto;html=1;exitX=0.5;exitY=1;exitDx=0;exitDy=0;entryX=0.5;entryY=0;entryDx=0;entryDy=0;fontSize=12;startSize=8;endSize=8;" edge="1" parent="1" source="XUvlI8r9rAUjjNbDGMf4-3" target="XUvlI8r9rAUjjNbDGMf4-5">
          <mxGeometry relative="1" as="geometry" />
        </mxCell>
        <mxCell id="XUvlI8r9rAUjjNbDGMf4-3" value="Tela de Ordens" style="rounded=1;whiteSpace=wrap;html=1;" vertex="1" parent="1">
          <mxGeometry x="182.12" y="1653" width="104.25" height="40" as="geometry" />
        </mxCell>
        <mxCell id="XUvlI8r9rAUjjNbDGMf4-10" style="edgeStyle=none;curved=1;rounded=0;orthogonalLoop=1;jettySize=auto;html=1;exitX=0.5;exitY=1;exitDx=0;exitDy=0;entryX=0.5;entryY=0;entryDx=0;entryDy=0;fontSize=12;startSize=8;endSize=8;" edge="1" parent="1" source="XUvlI8r9rAUjjNbDGMf4-5" target="XUvlI8r9rAUjjNbDGMf4-9">
          <mxGeometry relative="1" as="geometry" />
        </mxCell>
        <mxCell id="XUvlI8r9rAUjjNbDGMf4-11" value="[Criar Nova Ordem]" style="edgeLabel;html=1;align=center;verticalAlign=middle;resizable=0;points=[];fontSize=12;" vertex="1" connectable="0" parent="XUvlI8r9rAUjjNbDGMf4-10">
          <mxGeometry x="-0.1786" relative="1" as="geometry">
            <mxPoint as="offset" />
          </mxGeometry>
        </mxCell>
        <mxCell id="XUvlI8r9rAUjjNbDGMf4-142" style="edgeStyle=none;shape=connector;curved=0;rounded=1;orthogonalLoop=1;jettySize=auto;html=1;exitX=1;exitY=0.5;exitDx=0;exitDy=0;entryX=0;entryY=0.5;entryDx=0;entryDy=0;strokeColor=default;align=center;verticalAlign=middle;fontFamily=Helvetica;fontSize=12;fontColor=default;labelBackgroundColor=default;startSize=8;endArrow=classic;endSize=8;" edge="1" parent="1" source="XUvlI8r9rAUjjNbDGMf4-5" target="XUvlI8r9rAUjjNbDGMf4-141">
          <mxGeometry relative="1" as="geometry" />
        </mxCell>
        <mxCell id="XUvlI8r9rAUjjNbDGMf4-144" value="[Consultar status da ordem]" style="edgeLabel;html=1;align=center;verticalAlign=middle;resizable=0;points=[];fontSize=12;fontFamily=Helvetica;fontColor=default;labelBackgroundColor=default;" vertex="1" connectable="0" parent="XUvlI8r9rAUjjNbDGMf4-142">
          <mxGeometry x="-0.1669" y="2" relative="1" as="geometry">
            <mxPoint x="3" y="-9" as="offset" />
          </mxGeometry>
        </mxCell>
        <mxCell id="XUvlI8r9rAUjjNbDGMf4-182" style="edgeStyle=none;shape=connector;curved=0;rounded=1;orthogonalLoop=1;jettySize=auto;html=1;exitX=0;exitY=0.5;exitDx=0;exitDy=0;entryX=1;entryY=0.5;entryDx=0;entryDy=0;strokeColor=default;align=center;verticalAlign=middle;fontFamily=Helvetica;fontSize=12;fontColor=default;labelBackgroundColor=default;startSize=8;endArrow=classic;endSize=8;" edge="1" parent="1" source="XUvlI8r9rAUjjNbDGMf4-5" target="XUvlI8r9rAUjjNbDGMf4-181">
          <mxGeometry relative="1" as="geometry" />
        </mxCell>
        <mxCell id="XUvlI8r9rAUjjNbDGMf4-183" value="[Consultar histórico de ordens]" style="edgeLabel;html=1;align=center;verticalAlign=middle;resizable=0;points=[];fontSize=12;fontFamily=Helvetica;fontColor=default;labelBackgroundColor=default;" vertex="1" connectable="0" parent="XUvlI8r9rAUjjNbDGMf4-182">
          <mxGeometry x="-0.024" y="-1" relative="1" as="geometry">
            <mxPoint x="-12" y="-10" as="offset" />
          </mxGeometry>
        </mxCell>
        <mxCell id="XUvlI8r9rAUjjNbDGMf4-5" value="" style="rhombus;whiteSpace=wrap;html=1;" vertex="1" parent="1">
          <mxGeometry x="214.63" y="1765" width="39.25" height="23" as="geometry" />
        </mxCell>
        <mxCell id="XUvlI8r9rAUjjNbDGMf4-13" style="edgeStyle=none;curved=1;rounded=0;orthogonalLoop=1;jettySize=auto;html=1;exitX=0.5;exitY=1;exitDx=0;exitDy=0;entryX=0.5;entryY=0;entryDx=0;entryDy=0;fontSize=12;startSize=8;endSize=8;" edge="1" parent="1" source="XUvlI8r9rAUjjNbDGMf4-9" target="XUvlI8r9rAUjjNbDGMf4-12">
          <mxGeometry relative="1" as="geometry" />
        </mxCell>
        <mxCell id="XUvlI8r9rAUjjNbDGMf4-9" value="Escolhe tipo de ordem" style="rounded=1;whiteSpace=wrap;html=1;" vertex="1" parent="1">
          <mxGeometry x="174.25" y="1860" width="120" height="60" as="geometry" />
        </mxCell>
        <mxCell id="XUvlI8r9rAUjjNbDGMf4-16" style="edgeStyle=none;curved=1;rounded=0;orthogonalLoop=1;jettySize=auto;html=1;exitX=1;exitY=0.5;exitDx=0;exitDy=0;entryX=0;entryY=0.5;entryDx=0;entryDy=0;fontSize=12;startSize=8;endSize=8;" edge="1" parent="1" source="XUvlI8r9rAUjjNbDGMf4-12" target="XUvlI8r9rAUjjNbDGMf4-15">
          <mxGeometry relative="1" as="geometry" />
        </mxCell>
        <mxCell id="XUvlI8r9rAUjjNbDGMf4-19" value="[Ordem de venda]" style="edgeLabel;html=1;align=center;verticalAlign=middle;resizable=0;points=[];fontSize=12;" vertex="1" connectable="0" parent="XUvlI8r9rAUjjNbDGMf4-16">
          <mxGeometry x="-0.1482" y="-1" relative="1" as="geometry">
            <mxPoint x="1" y="-12" as="offset" />
          </mxGeometry>
        </mxCell>
        <mxCell id="XUvlI8r9rAUjjNbDGMf4-18" style="edgeStyle=none;curved=1;rounded=0;orthogonalLoop=1;jettySize=auto;html=1;exitX=0;exitY=0.5;exitDx=0;exitDy=0;entryX=1;entryY=0.5;entryDx=0;entryDy=0;fontSize=12;startSize=8;endSize=8;" edge="1" parent="1" source="XUvlI8r9rAUjjNbDGMf4-12" target="XUvlI8r9rAUjjNbDGMf4-17">
          <mxGeometry relative="1" as="geometry" />
        </mxCell>
        <mxCell id="XUvlI8r9rAUjjNbDGMf4-12" value="" style="rhombus;whiteSpace=wrap;html=1;" vertex="1" parent="1">
          <mxGeometry x="214.63" y="1971" width="39.25" height="23" as="geometry" />
        </mxCell>
        <mxCell id="XUvlI8r9rAUjjNbDGMf4-104" style="edgeStyle=none;shape=connector;curved=0;rounded=1;orthogonalLoop=1;jettySize=auto;html=1;exitX=1;exitY=0.5;exitDx=0;exitDy=0;entryX=0;entryY=0.5;entryDx=0;entryDy=0;strokeColor=default;align=center;verticalAlign=middle;fontFamily=Helvetica;fontSize=12;fontColor=default;labelBackgroundColor=default;startSize=8;endArrow=classic;endSize=8;" edge="1" parent="1" source="XUvlI8r9rAUjjNbDGMf4-15" target="XUvlI8r9rAUjjNbDGMf4-103">
          <mxGeometry relative="1" as="geometry" />
        </mxCell>
        <mxCell id="XUvlI8r9rAUjjNbDGMf4-15" value="Escolhe ação na carteira para venda" style="rounded=1;whiteSpace=wrap;html=1;" vertex="1" parent="1">
          <mxGeometry x="392" y="1952.5" width="120" height="60" as="geometry" />
        </mxCell>
        <mxCell id="XUvlI8r9rAUjjNbDGMf4-23" style="edgeStyle=none;curved=1;rounded=0;orthogonalLoop=1;jettySize=auto;html=1;exitX=0;exitY=0.5;exitDx=0;exitDy=0;entryX=1;entryY=0.5;entryDx=0;entryDy=0;fontSize=12;startSize=8;endSize=8;" edge="1" parent="1" source="XUvlI8r9rAUjjNbDGMf4-17" target="XUvlI8r9rAUjjNbDGMf4-22">
          <mxGeometry relative="1" as="geometry" />
        </mxCell>
        <mxCell id="XUvlI8r9rAUjjNbDGMf4-17" value="Seleciona ação desejada" style="rounded=1;whiteSpace=wrap;html=1;" vertex="1" parent="1">
          <mxGeometry x="-39" y="1952.5" width="120" height="60" as="geometry" />
        </mxCell>
        <mxCell id="XUvlI8r9rAUjjNbDGMf4-20" value="[Ordem de compra]" style="edgeLabel;html=1;align=center;verticalAlign=middle;resizable=0;points=[];fontSize=12;" vertex="1" connectable="0" parent="1">
          <mxGeometry x="154.9966666666666" y="1971" as="geometry" />
        </mxCell>
        <mxCell id="XUvlI8r9rAUjjNbDGMf4-25" style="edgeStyle=none;curved=1;rounded=0;orthogonalLoop=1;jettySize=auto;html=1;exitX=0.5;exitY=1;exitDx=0;exitDy=0;entryX=0.5;entryY=0;entryDx=0;entryDy=0;fontSize=12;startSize=8;endSize=8;" edge="1" parent="1" source="XUvlI8r9rAUjjNbDGMf4-22" target="XUvlI8r9rAUjjNbDGMf4-24">
          <mxGeometry relative="1" as="geometry" />
        </mxCell>
        <mxCell id="XUvlI8r9rAUjjNbDGMf4-22" value="Seleciona tipo de compra" style="rounded=1;whiteSpace=wrap;html=1;" vertex="1" parent="1">
          <mxGeometry x="-243" y="1952.5" width="120" height="60" as="geometry" />
        </mxCell>
        <mxCell id="XUvlI8r9rAUjjNbDGMf4-28" style="edgeStyle=none;curved=0;rounded=1;orthogonalLoop=1;jettySize=auto;html=1;exitX=0;exitY=0.5;exitDx=0;exitDy=0;entryX=0.5;entryY=0;entryDx=0;entryDy=0;fontSize=12;startSize=8;endSize=8;" edge="1" parent="1" source="XUvlI8r9rAUjjNbDGMf4-24" target="XUvlI8r9rAUjjNbDGMf4-26">
          <mxGeometry relative="1" as="geometry">
            <Array as="points">
              <mxPoint x="-308" y="2093" />
            </Array>
          </mxGeometry>
        </mxCell>
        <mxCell id="XUvlI8r9rAUjjNbDGMf4-30" value="[Melhor oferta do&lt;div&gt;mercado]&lt;/div&gt;" style="edgeLabel;html=1;align=center;verticalAlign=middle;resizable=0;points=[];fontSize=12;" vertex="1" connectable="0" parent="XUvlI8r9rAUjjNbDGMf4-28">
          <mxGeometry x="-0.3121" relative="1" as="geometry">
            <mxPoint x="3" y="-19" as="offset" />
          </mxGeometry>
        </mxCell>
        <mxCell id="XUvlI8r9rAUjjNbDGMf4-29" style="edgeStyle=none;curved=0;rounded=1;orthogonalLoop=1;jettySize=auto;html=1;exitX=1;exitY=0.5;exitDx=0;exitDy=0;entryX=0.5;entryY=0;entryDx=0;entryDy=0;fontSize=12;startSize=8;endSize=8;" edge="1" parent="1" source="XUvlI8r9rAUjjNbDGMf4-24" target="XUvlI8r9rAUjjNbDGMf4-27">
          <mxGeometry relative="1" as="geometry">
            <Array as="points">
              <mxPoint x="-65" y="2093" />
            </Array>
          </mxGeometry>
        </mxCell>
        <mxCell id="XUvlI8r9rAUjjNbDGMf4-24" value="" style="rhombus;whiteSpace=wrap;html=1;" vertex="1" parent="1">
          <mxGeometry x="-202.62" y="2081" width="39.25" height="23" as="geometry" />
        </mxCell>
        <mxCell id="XUvlI8r9rAUjjNbDGMf4-34" style="edgeStyle=none;curved=0;rounded=1;orthogonalLoop=1;jettySize=auto;html=1;exitX=0.5;exitY=1;exitDx=0;exitDy=0;entryX=0.5;entryY=0;entryDx=0;entryDy=0;fontSize=12;startSize=8;endSize=8;" edge="1" parent="1" source="XUvlI8r9rAUjjNbDGMf4-26" target="XUvlI8r9rAUjjNbDGMf4-33">
          <mxGeometry relative="1" as="geometry">
            <Array as="points">
              <mxPoint x="-308" y="2265" />
              <mxPoint x="-188" y="2267" />
            </Array>
          </mxGeometry>
        </mxCell>
        <mxCell id="XUvlI8r9rAUjjNbDGMf4-26" value="Procura melhor oferta no mercado" style="rounded=1;whiteSpace=wrap;html=1;" vertex="1" parent="1">
          <mxGeometry x="-368" y="2168" width="120" height="60" as="geometry" />
        </mxCell>
        <mxCell id="XUvlI8r9rAUjjNbDGMf4-35" style="edgeStyle=none;shape=connector;curved=0;rounded=1;orthogonalLoop=1;jettySize=auto;html=1;exitX=0.5;exitY=1;exitDx=0;exitDy=0;entryX=0.5;entryY=0;entryDx=0;entryDy=0;strokeColor=default;align=center;verticalAlign=middle;fontFamily=Helvetica;fontSize=12;fontColor=default;labelBackgroundColor=default;startSize=8;endArrow=classic;endSize=8;" edge="1" parent="1" source="XUvlI8r9rAUjjNbDGMf4-27" target="XUvlI8r9rAUjjNbDGMf4-33">
          <mxGeometry relative="1" as="geometry">
            <Array as="points">
              <mxPoint x="-66" y="2265" />
              <mxPoint x="-188" y="2267" />
            </Array>
          </mxGeometry>
        </mxCell>
        <mxCell id="XUvlI8r9rAUjjNbDGMf4-27" value="Insere valor desejado" style="rounded=1;whiteSpace=wrap;html=1;" vertex="1" parent="1">
          <mxGeometry x="-126" y="2168" width="120" height="60" as="geometry" />
        </mxCell>
        <mxCell id="XUvlI8r9rAUjjNbDGMf4-31" value="[A gatilho]" style="edgeLabel;html=1;align=center;verticalAlign=middle;resizable=0;points=[];fontSize=12;" vertex="1" connectable="0" parent="1">
          <mxGeometry x="-110.99930212445281" y="2081.0041701562177" as="geometry" />
        </mxCell>
        <mxCell id="XUvlI8r9rAUjjNbDGMf4-39" style="edgeStyle=none;shape=connector;curved=0;rounded=1;orthogonalLoop=1;jettySize=auto;html=1;exitX=0.5;exitY=1;exitDx=0;exitDy=0;entryX=0.5;entryY=0;entryDx=0;entryDy=0;strokeColor=default;align=center;verticalAlign=middle;fontFamily=Helvetica;fontSize=12;fontColor=default;labelBackgroundColor=default;startSize=8;endArrow=classic;endSize=8;" edge="1" parent="1" source="XUvlI8r9rAUjjNbDGMf4-33" target="XUvlI8r9rAUjjNbDGMf4-38">
          <mxGeometry relative="1" as="geometry" />
        </mxCell>
        <mxCell id="XUvlI8r9rAUjjNbDGMf4-33" value="Insere quantidade ou valor a ser investido" style="rounded=1;whiteSpace=wrap;html=1;" vertex="1" parent="1">
          <mxGeometry x="-248" y="2296" width="120" height="60" as="geometry" />
        </mxCell>
        <mxCell id="XUvlI8r9rAUjjNbDGMf4-47" style="edgeStyle=none;shape=connector;curved=0;rounded=1;orthogonalLoop=1;jettySize=auto;html=1;exitX=0.5;exitY=1;exitDx=0;exitDy=0;entryX=0.5;entryY=0;entryDx=0;entryDy=0;strokeColor=default;align=center;verticalAlign=middle;fontFamily=Helvetica;fontSize=12;fontColor=default;labelBackgroundColor=default;startSize=8;endArrow=classic;endSize=8;" edge="1" parent="1" source="XUvlI8r9rAUjjNbDGMf4-36" target="XUvlI8r9rAUjjNbDGMf4-46">
          <mxGeometry relative="1" as="geometry">
            <Array as="points">
              <mxPoint x="-90" y="2591" />
              <mxPoint x="-188" y="2591" />
            </Array>
          </mxGeometry>
        </mxCell>
        <mxCell id="XUvlI8r9rAUjjNbDGMf4-36" value="Recebe aviso se está negociando no mercado fracionário" style="rounded=1;whiteSpace=wrap;html=1;" vertex="1" parent="1">
          <mxGeometry x="-150" y="2490" width="120" height="60" as="geometry" />
        </mxCell>
        <mxCell id="XUvlI8r9rAUjjNbDGMf4-40" style="edgeStyle=none;shape=connector;curved=0;rounded=1;orthogonalLoop=1;jettySize=auto;html=1;exitX=1;exitY=0.5;exitDx=0;exitDy=0;entryX=0.5;entryY=0;entryDx=0;entryDy=0;strokeColor=default;align=center;verticalAlign=middle;fontFamily=Helvetica;fontSize=12;fontColor=default;labelBackgroundColor=default;startSize=8;endArrow=classic;endSize=8;" edge="1" parent="1" source="XUvlI8r9rAUjjNbDGMf4-38" target="XUvlI8r9rAUjjNbDGMf4-36">
          <mxGeometry relative="1" as="geometry">
            <Array as="points">
              <mxPoint x="-90" y="2429" />
            </Array>
          </mxGeometry>
        </mxCell>
        <mxCell id="XUvlI8r9rAUjjNbDGMf4-41" value="[quantidade é&lt;div&gt;fracionada?&lt;/div&gt;" style="edgeLabel;html=1;align=center;verticalAlign=middle;resizable=0;points=[];fontSize=12;fontFamily=Helvetica;fontColor=default;labelBackgroundColor=default;" vertex="1" connectable="0" parent="XUvlI8r9rAUjjNbDGMf4-40">
          <mxGeometry x="-0.4264" relative="1" as="geometry">
            <mxPoint x="-2" y="-18" as="offset" />
          </mxGeometry>
        </mxCell>
        <mxCell id="XUvlI8r9rAUjjNbDGMf4-48" style="edgeStyle=none;shape=connector;curved=0;rounded=1;orthogonalLoop=1;jettySize=auto;html=1;exitX=0.5;exitY=1;exitDx=0;exitDy=0;entryX=0.5;entryY=0;entryDx=0;entryDy=0;strokeColor=default;align=center;verticalAlign=middle;fontFamily=Helvetica;fontSize=12;fontColor=default;labelBackgroundColor=default;startSize=8;endArrow=classic;endSize=8;" edge="1" parent="1" source="XUvlI8r9rAUjjNbDGMf4-38" target="XUvlI8r9rAUjjNbDGMf4-46">
          <mxGeometry relative="1" as="geometry" />
        </mxCell>
        <mxCell id="XUvlI8r9rAUjjNbDGMf4-38" value="" style="rhombus;whiteSpace=wrap;html=1;" vertex="1" parent="1">
          <mxGeometry x="-207.62" y="2417" width="39.25" height="23" as="geometry" />
        </mxCell>
        <mxCell id="XUvlI8r9rAUjjNbDGMf4-51" style="edgeStyle=none;shape=connector;curved=0;rounded=1;orthogonalLoop=1;jettySize=auto;html=1;exitX=0.5;exitY=1;exitDx=0;exitDy=0;entryX=0.5;entryY=0;entryDx=0;entryDy=0;strokeColor=default;align=center;verticalAlign=middle;fontFamily=Helvetica;fontSize=12;fontColor=default;labelBackgroundColor=default;startSize=8;endArrow=classic;endSize=8;" edge="1" parent="1" source="XUvlI8r9rAUjjNbDGMf4-46" target="XUvlI8r9rAUjjNbDGMf4-50">
          <mxGeometry relative="1" as="geometry" />
        </mxCell>
        <mxCell id="XUvlI8r9rAUjjNbDGMf4-52" value="[API B3 disponível]" style="edgeLabel;html=1;align=center;verticalAlign=middle;resizable=0;points=[];fontSize=12;fontFamily=Helvetica;fontColor=default;labelBackgroundColor=default;" vertex="1" connectable="0" parent="XUvlI8r9rAUjjNbDGMf4-51">
          <mxGeometry x="-0.1299" y="-1" relative="1" as="geometry">
            <mxPoint as="offset" />
          </mxGeometry>
        </mxCell>
        <mxCell id="XUvlI8r9rAUjjNbDGMf4-64" style="edgeStyle=none;shape=connector;curved=0;rounded=1;orthogonalLoop=1;jettySize=auto;html=1;exitX=0;exitY=0.5;exitDx=0;exitDy=0;entryX=0.161;entryY=0.119;entryDx=0;entryDy=0;strokeColor=default;align=center;verticalAlign=middle;fontFamily=Helvetica;fontSize=12;fontColor=default;labelBackgroundColor=default;startSize=8;endArrow=classic;endSize=8;entryPerimeter=0;" edge="1" parent="1" source="XUvlI8r9rAUjjNbDGMf4-46" target="XUvlI8r9rAUjjNbDGMf4-61">
          <mxGeometry relative="1" as="geometry">
            <Array as="points">
              <mxPoint x="-321" y="2639" />
              <mxPoint x="-325" y="3033" />
              <mxPoint x="205" y="3035" />
            </Array>
          </mxGeometry>
        </mxCell>
        <mxCell id="XUvlI8r9rAUjjNbDGMf4-46" value="" style="rhombus;whiteSpace=wrap;html=1;" vertex="1" parent="1">
          <mxGeometry x="-207.62" y="2627" width="39.25" height="23" as="geometry" />
        </mxCell>
        <mxCell id="XUvlI8r9rAUjjNbDGMf4-54" style="edgeStyle=none;shape=connector;curved=0;rounded=1;orthogonalLoop=1;jettySize=auto;html=1;exitX=0.5;exitY=1;exitDx=0;exitDy=0;entryX=0.5;entryY=0;entryDx=0;entryDy=0;strokeColor=default;align=center;verticalAlign=middle;fontFamily=Helvetica;fontSize=12;fontColor=default;labelBackgroundColor=default;startSize=8;endArrow=classic;endSize=8;" edge="1" parent="1" source="XUvlI8r9rAUjjNbDGMf4-50" target="XUvlI8r9rAUjjNbDGMf4-53">
          <mxGeometry relative="1" as="geometry" />
        </mxCell>
        <mxCell id="XUvlI8r9rAUjjNbDGMf4-50" value="Simula Ordem&amp;nbsp;&lt;div&gt;de Compra&lt;/div&gt;" style="rounded=1;whiteSpace=wrap;html=1;fontSize=10;" vertex="1" parent="1">
          <mxGeometry x="-230.49" y="2727" width="85" height="40" as="geometry" />
        </mxCell>
        <mxCell id="XUvlI8r9rAUjjNbDGMf4-55" style="edgeStyle=none;shape=connector;curved=0;rounded=1;orthogonalLoop=1;jettySize=auto;html=1;exitX=1;exitY=0.5;exitDx=0;exitDy=0;strokeColor=default;align=center;verticalAlign=middle;fontFamily=Helvetica;fontSize=12;fontColor=default;labelBackgroundColor=default;startSize=8;endArrow=classic;endSize=8;" edge="1" parent="1" source="XUvlI8r9rAUjjNbDGMf4-53">
          <mxGeometry relative="1" as="geometry">
            <mxPoint x="-75.38095238095252" y="2862.3809523809523" as="targetPoint" />
          </mxGeometry>
        </mxCell>
        <mxCell id="XUvlI8r9rAUjjNbDGMf4-56" value="[Decide&lt;div&gt;efetivar]&lt;/div&gt;" style="edgeLabel;html=1;align=center;verticalAlign=middle;resizable=0;points=[];fontSize=12;fontFamily=Helvetica;fontColor=default;labelBackgroundColor=default;" vertex="1" connectable="0" parent="XUvlI8r9rAUjjNbDGMf4-55">
          <mxGeometry x="-0.2084" y="1" relative="1" as="geometry">
            <mxPoint y="-16" as="offset" />
          </mxGeometry>
        </mxCell>
        <mxCell id="XUvlI8r9rAUjjNbDGMf4-53" value="" style="rhombus;whiteSpace=wrap;html=1;" vertex="1" parent="1">
          <mxGeometry x="-207.63" y="2851" width="39.25" height="23" as="geometry" />
        </mxCell>
        <mxCell id="XUvlI8r9rAUjjNbDGMf4-59" style="edgeStyle=none;shape=connector;curved=0;rounded=1;orthogonalLoop=1;jettySize=auto;html=1;exitX=0.5;exitY=1;exitDx=0;exitDy=0;entryX=0.5;entryY=0;entryDx=0;entryDy=0;strokeColor=default;align=center;verticalAlign=middle;fontFamily=Helvetica;fontSize=12;fontColor=default;labelBackgroundColor=default;startSize=8;endArrow=classic;endSize=8;" edge="1" parent="1" source="XUvlI8r9rAUjjNbDGMf4-57" target="XUvlI8r9rAUjjNbDGMf4-58">
          <mxGeometry relative="1" as="geometry" />
        </mxCell>
        <mxCell id="XUvlI8r9rAUjjNbDGMf4-57" value="Efetiva ordem&lt;div&gt;de compra&lt;/div&gt;" style="rounded=1;whiteSpace=wrap;html=1;fontSize=10;" vertex="1" parent="1">
          <mxGeometry x="-74" y="2842.5" width="85" height="40" as="geometry" />
        </mxCell>
        <mxCell id="XUvlI8r9rAUjjNbDGMf4-63" style="edgeStyle=none;shape=connector;curved=0;rounded=1;orthogonalLoop=1;jettySize=auto;html=1;exitX=0.5;exitY=1;exitDx=0;exitDy=0;entryX=0.5;entryY=0;entryDx=0;entryDy=0;strokeColor=default;align=center;verticalAlign=middle;fontFamily=Helvetica;fontSize=12;fontColor=default;labelBackgroundColor=default;startSize=8;endArrow=classic;endSize=8;" edge="1" parent="1" source="XUvlI8r9rAUjjNbDGMf4-58" target="XUvlI8r9rAUjjNbDGMf4-61">
          <mxGeometry relative="1" as="geometry">
            <Array as="points">
              <mxPoint x="-31" y="3013" />
              <mxPoint x="232" y="3015" />
            </Array>
          </mxGeometry>
        </mxCell>
        <mxCell id="XUvlI8r9rAUjjNbDGMf4-58" value="Status da Ordem = pendente" style="rounded=1;whiteSpace=wrap;html=1;fontSize=10;" vertex="1" parent="1">
          <mxGeometry x="-74" y="2935" width="85" height="40" as="geometry" />
        </mxCell>
        <mxCell id="XUvlI8r9rAUjjNbDGMf4-60" style="edgeStyle=orthogonalEdgeStyle;rounded=0;orthogonalLoop=1;jettySize=auto;html=1;entryX=0.5;entryY=0;entryDx=0;entryDy=0;endArrow=open;endFill=0;" edge="1" parent="1" source="XUvlI8r9rAUjjNbDGMf4-61" target="XUvlI8r9rAUjjNbDGMf4-62">
          <mxGeometry relative="1" as="geometry">
            <mxPoint x="231.75000000000045" y="3135" as="targetPoint" />
          </mxGeometry>
        </mxCell>
        <mxCell id="XUvlI8r9rAUjjNbDGMf4-61" value="" style="rounded=0;whiteSpace=wrap;html=1;fillColor=#000000;" vertex="1" parent="1">
          <mxGeometry x="191.75" y="3095" width="80" height="10" as="geometry" />
        </mxCell>
        <mxCell id="XUvlI8r9rAUjjNbDGMf4-62" value="" style="ellipse;html=1;shape=endState;fillColor=#000000;strokeColor=#000000;" vertex="1" parent="1">
          <mxGeometry x="216.75" y="3145" width="30" height="30" as="geometry" />
        </mxCell>
        <mxCell id="XUvlI8r9rAUjjNbDGMf4-65" value="[API B3 indisponível]" style="edgeLabel;html=1;align=center;verticalAlign=middle;resizable=0;points=[];fontSize=12;fontFamily=Helvetica;fontColor=default;labelBackgroundColor=default;" vertex="1" connectable="0" parent="1">
          <mxGeometry x="-265.0028215312018" y="2626.9984519611094" as="geometry" />
        </mxCell>
        <mxCell id="XUvlI8r9rAUjjNbDGMf4-67" style="edgeStyle=none;shape=connector;curved=0;rounded=1;orthogonalLoop=1;jettySize=auto;html=1;exitX=0.5;exitY=1;exitDx=0;exitDy=0;entryX=0.322;entryY=0.119;entryDx=0;entryDy=0;entryPerimeter=0;strokeColor=default;align=center;verticalAlign=middle;fontFamily=Helvetica;fontSize=12;fontColor=default;labelBackgroundColor=default;startSize=8;endArrow=classic;endSize=8;" edge="1" parent="1" source="XUvlI8r9rAUjjNbDGMf4-53" target="XUvlI8r9rAUjjNbDGMf4-61">
          <mxGeometry relative="1" as="geometry">
            <Array as="points">
              <mxPoint x="-188" y="3023" />
              <mxPoint x="218" y="3025" />
            </Array>
          </mxGeometry>
        </mxCell>
        <mxCell id="XUvlI8r9rAUjjNbDGMf4-68" value="[Decide não&lt;div&gt;efetivar]&lt;/div&gt;" style="edgeLabel;html=1;align=center;verticalAlign=middle;resizable=0;points=[];fontSize=12;fontFamily=Helvetica;fontColor=default;labelBackgroundColor=default;" vertex="1" connectable="0" parent="XUvlI8r9rAUjjNbDGMf4-67">
          <mxGeometry x="-0.8488" y="1" relative="1" as="geometry">
            <mxPoint as="offset" />
          </mxGeometry>
        </mxCell>
        <mxCell id="XUvlI8r9rAUjjNbDGMf4-69" style="edgeStyle=none;curved=0;rounded=1;orthogonalLoop=1;jettySize=auto;html=1;exitX=0;exitY=0.5;exitDx=0;exitDy=0;entryX=0.5;entryY=0;entryDx=0;entryDy=0;fontSize=12;startSize=8;endSize=8;" edge="1" parent="1" source="XUvlI8r9rAUjjNbDGMf4-72" target="XUvlI8r9rAUjjNbDGMf4-74">
          <mxGeometry relative="1" as="geometry">
            <Array as="points">
              <mxPoint x="563" y="2093" />
            </Array>
          </mxGeometry>
        </mxCell>
        <mxCell id="XUvlI8r9rAUjjNbDGMf4-70" value="[melhor oferta do&lt;div&gt;mercado]&lt;/div&gt;" style="edgeLabel;html=1;align=center;verticalAlign=middle;resizable=0;points=[];fontSize=12;" vertex="1" connectable="0" parent="XUvlI8r9rAUjjNbDGMf4-69">
          <mxGeometry x="-0.3121" relative="1" as="geometry">
            <mxPoint x="3" y="-19" as="offset" />
          </mxGeometry>
        </mxCell>
        <mxCell id="XUvlI8r9rAUjjNbDGMf4-71" style="edgeStyle=none;curved=0;rounded=1;orthogonalLoop=1;jettySize=auto;html=1;exitX=1;exitY=0.5;exitDx=0;exitDy=0;entryX=0.5;entryY=0;entryDx=0;entryDy=0;fontSize=12;startSize=8;endSize=8;" edge="1" parent="1" source="XUvlI8r9rAUjjNbDGMf4-72" target="XUvlI8r9rAUjjNbDGMf4-76">
          <mxGeometry relative="1" as="geometry">
            <Array as="points">
              <mxPoint x="806" y="2093" />
            </Array>
          </mxGeometry>
        </mxCell>
        <mxCell id="XUvlI8r9rAUjjNbDGMf4-72" value="" style="rhombus;whiteSpace=wrap;html=1;" vertex="1" parent="1">
          <mxGeometry x="668.38" y="2081" width="39.25" height="23" as="geometry" />
        </mxCell>
        <mxCell id="XUvlI8r9rAUjjNbDGMf4-73" style="edgeStyle=none;curved=0;rounded=1;orthogonalLoop=1;jettySize=auto;html=1;exitX=0.5;exitY=1;exitDx=0;exitDy=0;entryX=0.5;entryY=0;entryDx=0;entryDy=0;fontSize=12;startSize=8;endSize=8;" edge="1" parent="1" source="XUvlI8r9rAUjjNbDGMf4-74" target="XUvlI8r9rAUjjNbDGMf4-79">
          <mxGeometry relative="1" as="geometry">
            <Array as="points">
              <mxPoint x="563" y="2265" />
              <mxPoint x="683" y="2267" />
            </Array>
          </mxGeometry>
        </mxCell>
        <mxCell id="XUvlI8r9rAUjjNbDGMf4-74" value="Anuncia no valor da melhor oferta do mercado (venda rápida)" style="rounded=1;whiteSpace=wrap;html=1;" vertex="1" parent="1">
          <mxGeometry x="503" y="2168" width="120" height="60" as="geometry" />
        </mxCell>
        <mxCell id="XUvlI8r9rAUjjNbDGMf4-75" style="edgeStyle=none;shape=connector;curved=0;rounded=1;orthogonalLoop=1;jettySize=auto;html=1;exitX=0.5;exitY=1;exitDx=0;exitDy=0;entryX=0.5;entryY=0;entryDx=0;entryDy=0;strokeColor=default;align=center;verticalAlign=middle;fontFamily=Helvetica;fontSize=12;fontColor=default;labelBackgroundColor=default;startSize=8;endArrow=classic;endSize=8;" edge="1" parent="1" source="XUvlI8r9rAUjjNbDGMf4-76" target="XUvlI8r9rAUjjNbDGMf4-79">
          <mxGeometry relative="1" as="geometry">
            <Array as="points">
              <mxPoint x="805" y="2265" />
              <mxPoint x="683" y="2267" />
            </Array>
          </mxGeometry>
        </mxCell>
        <mxCell id="XUvlI8r9rAUjjNbDGMf4-76" value="Insere valor de venda desejado" style="rounded=1;whiteSpace=wrap;html=1;" vertex="1" parent="1">
          <mxGeometry x="745" y="2168" width="120" height="60" as="geometry" />
        </mxCell>
        <mxCell id="XUvlI8r9rAUjjNbDGMf4-77" value="[A gatilho]" style="edgeLabel;html=1;align=center;verticalAlign=middle;resizable=0;points=[];fontSize=12;" vertex="1" connectable="0" parent="1">
          <mxGeometry x="760.0006978755472" y="2081.0041701562177" as="geometry" />
        </mxCell>
        <mxCell id="XUvlI8r9rAUjjNbDGMf4-78" style="edgeStyle=none;shape=connector;curved=0;rounded=1;orthogonalLoop=1;jettySize=auto;html=1;exitX=0.5;exitY=1;exitDx=0;exitDy=0;entryX=0.5;entryY=0;entryDx=0;entryDy=0;strokeColor=default;align=center;verticalAlign=middle;fontFamily=Helvetica;fontSize=12;fontColor=default;labelBackgroundColor=default;startSize=8;endArrow=classic;endSize=8;" edge="1" parent="1" source="XUvlI8r9rAUjjNbDGMf4-79" target="XUvlI8r9rAUjjNbDGMf4-85">
          <mxGeometry relative="1" as="geometry" />
        </mxCell>
        <mxCell id="XUvlI8r9rAUjjNbDGMf4-79" value="Insere quantidade a ser vendida" style="rounded=1;whiteSpace=wrap;html=1;" vertex="1" parent="1">
          <mxGeometry x="623" y="2296" width="120" height="60" as="geometry" />
        </mxCell>
        <mxCell id="XUvlI8r9rAUjjNbDGMf4-80" style="edgeStyle=none;shape=connector;curved=0;rounded=1;orthogonalLoop=1;jettySize=auto;html=1;exitX=0.5;exitY=1;exitDx=0;exitDy=0;entryX=0.5;entryY=0;entryDx=0;entryDy=0;strokeColor=default;align=center;verticalAlign=middle;fontFamily=Helvetica;fontSize=12;fontColor=default;labelBackgroundColor=default;startSize=8;endArrow=classic;endSize=8;" edge="1" parent="1" source="XUvlI8r9rAUjjNbDGMf4-81" target="XUvlI8r9rAUjjNbDGMf4-89">
          <mxGeometry relative="1" as="geometry">
            <Array as="points">
              <mxPoint x="781" y="2591" />
              <mxPoint x="683" y="2591" />
            </Array>
          </mxGeometry>
        </mxCell>
        <mxCell id="XUvlI8r9rAUjjNbDGMf4-81" value="Recebe aviso se está negociando no mercado fracionário" style="rounded=1;whiteSpace=wrap;html=1;" vertex="1" parent="1">
          <mxGeometry x="721" y="2490" width="120" height="60" as="geometry" />
        </mxCell>
        <mxCell id="XUvlI8r9rAUjjNbDGMf4-82" style="edgeStyle=none;shape=connector;curved=0;rounded=1;orthogonalLoop=1;jettySize=auto;html=1;exitX=1;exitY=0.5;exitDx=0;exitDy=0;entryX=0.5;entryY=0;entryDx=0;entryDy=0;strokeColor=default;align=center;verticalAlign=middle;fontFamily=Helvetica;fontSize=12;fontColor=default;labelBackgroundColor=default;startSize=8;endArrow=classic;endSize=8;" edge="1" parent="1" source="XUvlI8r9rAUjjNbDGMf4-85" target="XUvlI8r9rAUjjNbDGMf4-81">
          <mxGeometry relative="1" as="geometry">
            <Array as="points">
              <mxPoint x="781" y="2429" />
            </Array>
          </mxGeometry>
        </mxCell>
        <mxCell id="XUvlI8r9rAUjjNbDGMf4-83" value="[quantidade é&lt;div&gt;fracionada?&lt;/div&gt;" style="edgeLabel;html=1;align=center;verticalAlign=middle;resizable=0;points=[];fontSize=12;fontFamily=Helvetica;fontColor=default;labelBackgroundColor=default;" vertex="1" connectable="0" parent="XUvlI8r9rAUjjNbDGMf4-82">
          <mxGeometry x="-0.4264" relative="1" as="geometry">
            <mxPoint x="-2" y="-18" as="offset" />
          </mxGeometry>
        </mxCell>
        <mxCell id="XUvlI8r9rAUjjNbDGMf4-84" style="edgeStyle=none;shape=connector;curved=0;rounded=1;orthogonalLoop=1;jettySize=auto;html=1;exitX=0.5;exitY=1;exitDx=0;exitDy=0;entryX=0.5;entryY=0;entryDx=0;entryDy=0;strokeColor=default;align=center;verticalAlign=middle;fontFamily=Helvetica;fontSize=12;fontColor=default;labelBackgroundColor=default;startSize=8;endArrow=classic;endSize=8;" edge="1" parent="1" source="XUvlI8r9rAUjjNbDGMf4-85" target="XUvlI8r9rAUjjNbDGMf4-89">
          <mxGeometry relative="1" as="geometry" />
        </mxCell>
        <mxCell id="XUvlI8r9rAUjjNbDGMf4-85" value="" style="rhombus;whiteSpace=wrap;html=1;" vertex="1" parent="1">
          <mxGeometry x="663.38" y="2417" width="39.25" height="23" as="geometry" />
        </mxCell>
        <mxCell id="XUvlI8r9rAUjjNbDGMf4-86" style="edgeStyle=none;shape=connector;curved=0;rounded=1;orthogonalLoop=1;jettySize=auto;html=1;exitX=0.5;exitY=1;exitDx=0;exitDy=0;entryX=0.5;entryY=0;entryDx=0;entryDy=0;strokeColor=default;align=center;verticalAlign=middle;fontFamily=Helvetica;fontSize=12;fontColor=default;labelBackgroundColor=default;startSize=8;endArrow=classic;endSize=8;" edge="1" parent="1" source="XUvlI8r9rAUjjNbDGMf4-89" target="XUvlI8r9rAUjjNbDGMf4-91">
          <mxGeometry relative="1" as="geometry" />
        </mxCell>
        <mxCell id="XUvlI8r9rAUjjNbDGMf4-87" value="[API B3 disponível]" style="edgeLabel;html=1;align=center;verticalAlign=middle;resizable=0;points=[];fontSize=12;fontFamily=Helvetica;fontColor=default;labelBackgroundColor=default;" vertex="1" connectable="0" parent="XUvlI8r9rAUjjNbDGMf4-86">
          <mxGeometry x="-0.1299" y="-1" relative="1" as="geometry">
            <mxPoint as="offset" />
          </mxGeometry>
        </mxCell>
        <mxCell id="XUvlI8r9rAUjjNbDGMf4-89" value="" style="rhombus;whiteSpace=wrap;html=1;" vertex="1" parent="1">
          <mxGeometry x="663.38" y="2627" width="39.25" height="23" as="geometry" />
        </mxCell>
        <mxCell id="XUvlI8r9rAUjjNbDGMf4-90" style="edgeStyle=none;shape=connector;curved=0;rounded=1;orthogonalLoop=1;jettySize=auto;html=1;exitX=0.5;exitY=1;exitDx=0;exitDy=0;entryX=0.5;entryY=0;entryDx=0;entryDy=0;strokeColor=default;align=center;verticalAlign=middle;fontFamily=Helvetica;fontSize=12;fontColor=default;labelBackgroundColor=default;startSize=8;endArrow=classic;endSize=8;" edge="1" parent="1" source="XUvlI8r9rAUjjNbDGMf4-91" target="XUvlI8r9rAUjjNbDGMf4-94">
          <mxGeometry relative="1" as="geometry" />
        </mxCell>
        <mxCell id="XUvlI8r9rAUjjNbDGMf4-91" value="Simula Ordem&amp;nbsp;&lt;div&gt;de Venda&lt;/div&gt;" style="rounded=1;whiteSpace=wrap;html=1;fontSize=10;" vertex="1" parent="1">
          <mxGeometry x="640.51" y="2727" width="85" height="40" as="geometry" />
        </mxCell>
        <mxCell id="XUvlI8r9rAUjjNbDGMf4-92" style="edgeStyle=none;shape=connector;curved=0;rounded=1;orthogonalLoop=1;jettySize=auto;html=1;exitX=1;exitY=0.5;exitDx=0;exitDy=0;strokeColor=default;align=center;verticalAlign=middle;fontFamily=Helvetica;fontSize=12;fontColor=default;labelBackgroundColor=default;startSize=8;endArrow=classic;endSize=8;" edge="1" parent="1" source="XUvlI8r9rAUjjNbDGMf4-94">
          <mxGeometry relative="1" as="geometry">
            <mxPoint x="795.6190476190475" y="2862.3809523809523" as="targetPoint" />
          </mxGeometry>
        </mxCell>
        <mxCell id="XUvlI8r9rAUjjNbDGMf4-93" value="[Decide&lt;div&gt;efetivar]&lt;/div&gt;" style="edgeLabel;html=1;align=center;verticalAlign=middle;resizable=0;points=[];fontSize=12;fontFamily=Helvetica;fontColor=default;labelBackgroundColor=default;" vertex="1" connectable="0" parent="XUvlI8r9rAUjjNbDGMf4-92">
          <mxGeometry x="-0.2084" y="1" relative="1" as="geometry">
            <mxPoint y="-16" as="offset" />
          </mxGeometry>
        </mxCell>
        <mxCell id="XUvlI8r9rAUjjNbDGMf4-136" style="edgeStyle=none;shape=connector;curved=0;rounded=1;orthogonalLoop=1;jettySize=auto;html=1;exitX=0.5;exitY=1;exitDx=0;exitDy=0;entryX=0.75;entryY=0;entryDx=0;entryDy=0;strokeColor=default;align=center;verticalAlign=middle;fontFamily=Helvetica;fontSize=12;fontColor=default;labelBackgroundColor=default;startSize=8;endArrow=classic;endSize=8;" edge="1" parent="1" source="XUvlI8r9rAUjjNbDGMf4-94" target="XUvlI8r9rAUjjNbDGMf4-61">
          <mxGeometry relative="1" as="geometry">
            <Array as="points">
              <mxPoint x="683" y="3026" />
              <mxPoint x="252" y="3030" />
            </Array>
          </mxGeometry>
        </mxCell>
        <mxCell id="XUvlI8r9rAUjjNbDGMf4-137" value="[Decide não&lt;div&gt;efetivar]&lt;/div&gt;" style="edgeLabel;html=1;align=center;verticalAlign=middle;resizable=0;points=[];fontSize=12;fontFamily=Helvetica;fontColor=default;labelBackgroundColor=default;" vertex="1" connectable="0" parent="XUvlI8r9rAUjjNbDGMf4-136">
          <mxGeometry x="-0.8735" y="-2" relative="1" as="geometry">
            <mxPoint as="offset" />
          </mxGeometry>
        </mxCell>
        <mxCell id="XUvlI8r9rAUjjNbDGMf4-94" value="" style="rhombus;whiteSpace=wrap;html=1;" vertex="1" parent="1">
          <mxGeometry x="663.37" y="2851" width="39.25" height="23" as="geometry" />
        </mxCell>
        <mxCell id="XUvlI8r9rAUjjNbDGMf4-95" style="edgeStyle=none;shape=connector;curved=0;rounded=1;orthogonalLoop=1;jettySize=auto;html=1;exitX=0.5;exitY=1;exitDx=0;exitDy=0;entryX=0.5;entryY=0;entryDx=0;entryDy=0;strokeColor=default;align=center;verticalAlign=middle;fontFamily=Helvetica;fontSize=12;fontColor=default;labelBackgroundColor=default;startSize=8;endArrow=classic;endSize=8;" edge="1" parent="1" source="XUvlI8r9rAUjjNbDGMf4-96" target="XUvlI8r9rAUjjNbDGMf4-98">
          <mxGeometry relative="1" as="geometry" />
        </mxCell>
        <mxCell id="XUvlI8r9rAUjjNbDGMf4-96" value="Efetiva ordem&lt;div&gt;de Venda&lt;/div&gt;" style="rounded=1;whiteSpace=wrap;html=1;fontSize=10;" vertex="1" parent="1">
          <mxGeometry x="797" y="2842.5" width="85" height="40" as="geometry" />
        </mxCell>
        <mxCell id="XUvlI8r9rAUjjNbDGMf4-98" value="Status da Ordem = pendente" style="rounded=1;whiteSpace=wrap;html=1;fontSize=10;" vertex="1" parent="1">
          <mxGeometry x="797" y="2935" width="85" height="40" as="geometry" />
        </mxCell>
        <mxCell id="XUvlI8r9rAUjjNbDGMf4-99" value="[API B3 indisponível]" style="edgeLabel;html=1;align=center;verticalAlign=middle;resizable=0;points=[];fontSize=12;fontFamily=Helvetica;fontColor=default;labelBackgroundColor=default;" vertex="1" connectable="0" parent="1">
          <mxGeometry x="605.9971784687982" y="2626.9984519611094" as="geometry" />
        </mxCell>
        <mxCell id="XUvlI8r9rAUjjNbDGMf4-105" style="edgeStyle=none;shape=connector;curved=0;rounded=1;orthogonalLoop=1;jettySize=auto;html=1;exitX=0.5;exitY=1;exitDx=0;exitDy=0;entryX=0.5;entryY=0;entryDx=0;entryDy=0;strokeColor=default;align=center;verticalAlign=middle;fontFamily=Helvetica;fontSize=12;fontColor=default;labelBackgroundColor=default;startSize=8;endArrow=classic;endSize=8;" edge="1" parent="1" source="XUvlI8r9rAUjjNbDGMf4-103" target="XUvlI8r9rAUjjNbDGMf4-72">
          <mxGeometry relative="1" as="geometry" />
        </mxCell>
        <mxCell id="XUvlI8r9rAUjjNbDGMf4-103" value="Seleciona tipo de venda" style="rounded=1;whiteSpace=wrap;html=1;" vertex="1" parent="1">
          <mxGeometry x="629" y="1952.5" width="120" height="60" as="geometry" />
        </mxCell>
        <mxCell id="XUvlI8r9rAUjjNbDGMf4-135" style="edgeStyle=none;shape=connector;curved=0;rounded=1;orthogonalLoop=1;jettySize=auto;html=1;exitX=0.5;exitY=1;exitDx=0;exitDy=0;entryX=0.916;entryY=0;entryDx=0;entryDy=0;entryPerimeter=0;strokeColor=default;align=center;verticalAlign=middle;fontFamily=Helvetica;fontSize=12;fontColor=default;labelBackgroundColor=default;startSize=8;endArrow=classic;endSize=8;" edge="1" parent="1" source="XUvlI8r9rAUjjNbDGMf4-98" target="XUvlI8r9rAUjjNbDGMf4-61">
          <mxGeometry relative="1" as="geometry">
            <Array as="points">
              <mxPoint x="840" y="3036" />
              <mxPoint x="265" y="3040" />
            </Array>
          </mxGeometry>
        </mxCell>
        <mxCell id="XUvlI8r9rAUjjNbDGMf4-138" style="edgeStyle=none;shape=connector;curved=0;rounded=1;orthogonalLoop=1;jettySize=auto;html=1;exitX=0;exitY=0.5;exitDx=0;exitDy=0;entryX=0.623;entryY=0;entryDx=0;entryDy=0;entryPerimeter=0;strokeColor=default;align=center;verticalAlign=middle;fontFamily=Helvetica;fontSize=12;fontColor=default;labelBackgroundColor=default;startSize=8;endArrow=classic;endSize=8;" edge="1" parent="1" source="XUvlI8r9rAUjjNbDGMf4-89" target="XUvlI8r9rAUjjNbDGMf4-61">
          <mxGeometry relative="1" as="geometry">
            <Array as="points">
              <mxPoint x="536" y="2640" />
              <mxPoint x="536" y="3016" />
              <mxPoint x="240" y="3018" />
            </Array>
          </mxGeometry>
        </mxCell>
        <mxCell id="XUvlI8r9rAUjjNbDGMf4-148" style="edgeStyle=none;shape=connector;curved=0;rounded=1;orthogonalLoop=1;jettySize=auto;html=1;exitX=1;exitY=0.5;exitDx=0;exitDy=0;entryX=0;entryY=0.5;entryDx=0;entryDy=0;strokeColor=default;align=center;verticalAlign=middle;fontFamily=Helvetica;fontSize=12;fontColor=default;labelBackgroundColor=default;startSize=8;endArrow=classic;endSize=8;" edge="1" parent="1" source="XUvlI8r9rAUjjNbDGMf4-140" target="XUvlI8r9rAUjjNbDGMf4-147">
          <mxGeometry relative="1" as="geometry" />
        </mxCell>
        <mxCell id="XUvlI8r9rAUjjNbDGMf4-140" value="Exibe lista de ordens pendentes" style="rounded=1;whiteSpace=wrap;html=1;" vertex="1" parent="1">
          <mxGeometry x="700" y="1746.5" width="120" height="60" as="geometry" />
        </mxCell>
        <mxCell id="XUvlI8r9rAUjjNbDGMf4-143" style="edgeStyle=none;shape=connector;curved=0;rounded=1;orthogonalLoop=1;jettySize=auto;html=1;exitX=1;exitY=0.5;exitDx=0;exitDy=0;entryX=0;entryY=0.5;entryDx=0;entryDy=0;strokeColor=default;align=center;verticalAlign=middle;fontFamily=Helvetica;fontSize=12;fontColor=default;labelBackgroundColor=default;startSize=8;endArrow=classic;endSize=8;" edge="1" parent="1" source="XUvlI8r9rAUjjNbDGMf4-141" target="XUvlI8r9rAUjjNbDGMf4-140">
          <mxGeometry relative="1" as="geometry" />
        </mxCell>
        <mxCell id="XUvlI8r9rAUjjNbDGMf4-141" value="Seleciona tipo de ordem (compra/venda)" style="rounded=1;whiteSpace=wrap;html=1;" vertex="1" parent="1">
          <mxGeometry x="458" y="1746.5" width="120" height="60" as="geometry" />
        </mxCell>
        <mxCell id="XUvlI8r9rAUjjNbDGMf4-149" style="edgeStyle=none;shape=connector;curved=0;rounded=1;orthogonalLoop=1;jettySize=auto;html=1;exitX=0.5;exitY=0;exitDx=0;exitDy=0;entryX=1;entryY=0.5;entryDx=0;entryDy=0;strokeColor=default;align=center;verticalAlign=middle;fontFamily=Helvetica;fontSize=12;fontColor=default;labelBackgroundColor=default;startSize=8;endArrow=classic;endSize=8;" edge="1" parent="1" source="XUvlI8r9rAUjjNbDGMf4-147" target="XUvlI8r9rAUjjNbDGMf4-3">
          <mxGeometry relative="1" as="geometry">
            <Array as="points">
              <mxPoint x="971" y="1673" />
            </Array>
          </mxGeometry>
        </mxCell>
        <mxCell id="XUvlI8r9rAUjjNbDGMf4-150" value="[usuário seleciona&lt;div&gt;voltar]&lt;/div&gt;" style="edgeLabel;html=1;align=center;verticalAlign=middle;resizable=0;points=[];fontSize=12;fontFamily=Helvetica;fontColor=default;labelBackgroundColor=default;" vertex="1" connectable="0" parent="XUvlI8r9rAUjjNbDGMf4-149">
          <mxGeometry x="-0.9242" y="-1" relative="1" as="geometry">
            <mxPoint as="offset" />
          </mxGeometry>
        </mxCell>
        <mxCell id="XUvlI8r9rAUjjNbDGMf4-153" style="edgeStyle=none;shape=connector;curved=0;rounded=1;orthogonalLoop=1;jettySize=auto;html=1;exitX=1;exitY=0.5;exitDx=0;exitDy=0;entryX=0;entryY=0.5;entryDx=0;entryDy=0;strokeColor=default;align=center;verticalAlign=middle;fontFamily=Helvetica;fontSize=12;fontColor=default;labelBackgroundColor=default;startSize=8;endArrow=classic;endSize=8;" edge="1" parent="1" source="XUvlI8r9rAUjjNbDGMf4-147" target="XUvlI8r9rAUjjNbDGMf4-151">
          <mxGeometry relative="1" as="geometry" />
        </mxCell>
        <mxCell id="XUvlI8r9rAUjjNbDGMf4-154" value="[usuário seleciona&lt;div&gt;ordem específica]&lt;/div&gt;" style="edgeLabel;html=1;align=center;verticalAlign=middle;resizable=0;points=[];fontSize=12;fontFamily=Helvetica;fontColor=default;labelBackgroundColor=default;" vertex="1" connectable="0" parent="XUvlI8r9rAUjjNbDGMf4-153">
          <mxGeometry x="-0.2077" y="2" relative="1" as="geometry">
            <mxPoint x="19" y="-15" as="offset" />
          </mxGeometry>
        </mxCell>
        <mxCell id="XUvlI8r9rAUjjNbDGMf4-147" value="" style="rhombus;whiteSpace=wrap;html=1;" vertex="1" parent="1">
          <mxGeometry x="951" y="1765" width="39.25" height="23" as="geometry" />
        </mxCell>
        <mxCell id="XUvlI8r9rAUjjNbDGMf4-156" style="edgeStyle=none;shape=connector;curved=0;rounded=1;orthogonalLoop=1;jettySize=auto;html=1;exitX=0.5;exitY=1;exitDx=0;exitDy=0;entryX=0.5;entryY=0;entryDx=0;entryDy=0;strokeColor=default;align=center;verticalAlign=middle;fontFamily=Helvetica;fontSize=12;fontColor=default;labelBackgroundColor=default;startSize=8;endArrow=classic;endSize=8;" edge="1" parent="1" source="XUvlI8r9rAUjjNbDGMf4-151" target="XUvlI8r9rAUjjNbDGMf4-155">
          <mxGeometry relative="1" as="geometry" />
        </mxCell>
        <mxCell id="XUvlI8r9rAUjjNbDGMf4-151" value="Exibe opções da ordem específica" style="rounded=1;whiteSpace=wrap;html=1;" vertex="1" parent="1">
          <mxGeometry x="1174.62" y="1746.5" width="120" height="60" as="geometry" />
        </mxCell>
        <mxCell id="XUvlI8r9rAUjjNbDGMf4-160" style="edgeStyle=none;shape=connector;curved=0;rounded=1;orthogonalLoop=1;jettySize=auto;html=1;exitX=0;exitY=0.5;exitDx=0;exitDy=0;entryX=1;entryY=0.5;entryDx=0;entryDy=0;strokeColor=default;align=center;verticalAlign=middle;fontFamily=Helvetica;fontSize=12;fontColor=default;labelBackgroundColor=default;startSize=8;endArrow=classic;endSize=8;" edge="1" parent="1" source="XUvlI8r9rAUjjNbDGMf4-155" target="XUvlI8r9rAUjjNbDGMf4-158">
          <mxGeometry relative="1" as="geometry" />
        </mxCell>
        <mxCell id="XUvlI8r9rAUjjNbDGMf4-167" value="[Modificar ordem]" style="edgeLabel;html=1;align=center;verticalAlign=middle;resizable=0;points=[];fontSize=12;fontFamily=Helvetica;fontColor=default;labelBackgroundColor=default;" vertex="1" connectable="0" parent="XUvlI8r9rAUjjNbDGMf4-160">
          <mxGeometry x="-0.0461" y="-1" relative="1" as="geometry">
            <mxPoint y="-10" as="offset" />
          </mxGeometry>
        </mxCell>
        <mxCell id="XUvlI8r9rAUjjNbDGMf4-174" style="edgeStyle=none;shape=connector;curved=0;rounded=1;orthogonalLoop=1;jettySize=auto;html=1;exitX=1;exitY=0.5;exitDx=0;exitDy=0;entryX=0;entryY=0.5;entryDx=0;entryDy=0;strokeColor=default;align=center;verticalAlign=middle;fontFamily=Helvetica;fontSize=12;fontColor=default;labelBackgroundColor=default;startSize=8;endArrow=classic;endSize=8;" edge="1" parent="1" source="XUvlI8r9rAUjjNbDGMf4-155" target="XUvlI8r9rAUjjNbDGMf4-172">
          <mxGeometry relative="1" as="geometry" />
        </mxCell>
        <mxCell id="XUvlI8r9rAUjjNbDGMf4-175" value="[Cancelar ordem]" style="edgeLabel;html=1;align=center;verticalAlign=middle;resizable=0;points=[];fontSize=12;fontFamily=Helvetica;fontColor=default;labelBackgroundColor=default;" vertex="1" connectable="0" parent="XUvlI8r9rAUjjNbDGMf4-174">
          <mxGeometry x="-0.0643" y="-1" relative="1" as="geometry">
            <mxPoint y="-12" as="offset" />
          </mxGeometry>
        </mxCell>
        <mxCell id="XUvlI8r9rAUjjNbDGMf4-155" value="" style="rhombus;whiteSpace=wrap;html=1;" vertex="1" parent="1">
          <mxGeometry x="1215" y="1909" width="39.25" height="23" as="geometry" />
        </mxCell>
        <mxCell id="XUvlI8r9rAUjjNbDGMf4-162" style="edgeStyle=none;shape=connector;curved=0;rounded=1;orthogonalLoop=1;jettySize=auto;html=1;exitX=0;exitY=0.5;exitDx=0;exitDy=0;entryX=1;entryY=0.5;entryDx=0;entryDy=0;strokeColor=default;align=center;verticalAlign=middle;fontFamily=Helvetica;fontSize=12;fontColor=default;labelBackgroundColor=default;startSize=8;endArrow=classic;endSize=8;" edge="1" parent="1" source="XUvlI8r9rAUjjNbDGMf4-158" target="XUvlI8r9rAUjjNbDGMf4-161">
          <mxGeometry relative="1" as="geometry" />
        </mxCell>
        <mxCell id="XUvlI8r9rAUjjNbDGMf4-158" value="Insere novos parâmetros (tipo de compra/venda, valor, quantidade, etc.)" style="rounded=1;whiteSpace=wrap;html=1;" vertex="1" parent="1">
          <mxGeometry x="943" y="1890.5" width="120" height="60" as="geometry" />
        </mxCell>
        <mxCell id="XUvlI8r9rAUjjNbDGMf4-163" style="edgeStyle=none;shape=connector;curved=0;rounded=1;orthogonalLoop=1;jettySize=auto;html=1;exitX=0;exitY=0.5;exitDx=0;exitDy=0;entryX=0.5;entryY=0;entryDx=0;entryDy=0;strokeColor=default;align=center;verticalAlign=middle;fontFamily=Helvetica;fontSize=12;fontColor=default;labelBackgroundColor=default;startSize=8;endArrow=classic;endSize=8;" edge="1" parent="1" source="XUvlI8r9rAUjjNbDGMf4-161" target="XUvlI8r9rAUjjNbDGMf4-103">
          <mxGeometry relative="1" as="geometry">
            <Array as="points">
              <mxPoint x="689" y="1921" />
            </Array>
          </mxGeometry>
        </mxCell>
        <mxCell id="XUvlI8r9rAUjjNbDGMf4-164" value="[ordem de venda]" style="edgeLabel;html=1;align=center;verticalAlign=middle;resizable=0;points=[];fontSize=12;fontFamily=Helvetica;fontColor=default;labelBackgroundColor=default;" vertex="1" connectable="0" parent="XUvlI8r9rAUjjNbDGMf4-163">
          <mxGeometry x="-0.1658" relative="1" as="geometry">
            <mxPoint x="1" y="-12" as="offset" />
          </mxGeometry>
        </mxCell>
        <mxCell id="XUvlI8r9rAUjjNbDGMf4-165" style="edgeStyle=none;shape=connector;curved=0;rounded=1;orthogonalLoop=1;jettySize=auto;html=1;exitX=0.5;exitY=0;exitDx=0;exitDy=0;entryX=0.5;entryY=0;entryDx=0;entryDy=0;strokeColor=default;align=center;verticalAlign=middle;fontFamily=Helvetica;fontSize=12;fontColor=default;labelBackgroundColor=default;startSize=8;endArrow=classic;endSize=8;" edge="1" parent="1" source="XUvlI8r9rAUjjNbDGMf4-161" target="XUvlI8r9rAUjjNbDGMf4-22">
          <mxGeometry relative="1" as="geometry">
            <Array as="points">
              <mxPoint x="862" y="1890" />
              <mxPoint x="634" y="1890" />
              <mxPoint x="634" y="1930" />
              <mxPoint x="-183" y="1930" />
            </Array>
          </mxGeometry>
        </mxCell>
        <mxCell id="XUvlI8r9rAUjjNbDGMf4-161" value="" style="rhombus;whiteSpace=wrap;html=1;" vertex="1" parent="1">
          <mxGeometry x="842.75" y="1909" width="39.25" height="23" as="geometry" />
        </mxCell>
        <mxCell id="XUvlI8r9rAUjjNbDGMf4-166" value="[ordem de compra]" style="edgeLabel;html=1;align=center;verticalAlign=middle;resizable=0;points=[];fontSize=12;fontFamily=Helvetica;fontColor=default;labelBackgroundColor=default;" vertex="1" connectable="0" parent="1">
          <mxGeometry x="736.0004082193811" y="1877.0010555830263" as="geometry" />
        </mxCell>
        <mxCell id="XUvlI8r9rAUjjNbDGMf4-177" style="edgeStyle=none;shape=connector;curved=0;rounded=1;orthogonalLoop=1;jettySize=auto;html=1;exitX=0.5;exitY=1;exitDx=0;exitDy=0;entryX=0.5;entryY=0;entryDx=0;entryDy=0;strokeColor=default;align=center;verticalAlign=middle;fontFamily=Helvetica;fontSize=12;fontColor=default;labelBackgroundColor=default;startSize=8;endArrow=classic;endSize=8;" edge="1" parent="1" source="XUvlI8r9rAUjjNbDGMf4-169" target="XUvlI8r9rAUjjNbDGMf4-170">
          <mxGeometry relative="1" as="geometry" />
        </mxCell>
        <mxCell id="XUvlI8r9rAUjjNbDGMf4-169" value="Processamento do cancelamento de Ordem de venda" style="rounded=1;whiteSpace=wrap;html=1;fontSize=10;" vertex="1" parent="1">
          <mxGeometry x="1437.62" y="2020" width="92" height="58" as="geometry" />
        </mxCell>
        <mxCell id="XUvlI8r9rAUjjNbDGMf4-179" style="edgeStyle=none;shape=connector;curved=0;rounded=1;orthogonalLoop=1;jettySize=auto;html=1;exitX=0.5;exitY=1;exitDx=0;exitDy=0;entryX=1;entryY=0;entryDx=0;entryDy=0;strokeColor=default;align=center;verticalAlign=middle;fontFamily=Helvetica;fontSize=12;fontColor=default;labelBackgroundColor=default;startSize=8;endArrow=classic;endSize=8;" edge="1" parent="1" source="XUvlI8r9rAUjjNbDGMf4-170" target="XUvlI8r9rAUjjNbDGMf4-61">
          <mxGeometry relative="1" as="geometry">
            <Array as="points">
              <mxPoint x="1478" y="3059" />
              <mxPoint x="272" y="3059" />
            </Array>
          </mxGeometry>
        </mxCell>
        <mxCell id="XUvlI8r9rAUjjNbDGMf4-170" value="Ordem cancelada" style="rounded=1;whiteSpace=wrap;html=1;fontSize=10;" vertex="1" parent="1">
          <mxGeometry x="1441.12" y="2155" width="85" height="40" as="geometry" />
        </mxCell>
        <mxCell id="XUvlI8r9rAUjjNbDGMf4-176" style="edgeStyle=none;shape=connector;curved=0;rounded=1;orthogonalLoop=1;jettySize=auto;html=1;exitX=0.5;exitY=1;exitDx=0;exitDy=0;entryX=0.5;entryY=0;entryDx=0;entryDy=0;strokeColor=default;align=center;verticalAlign=middle;fontFamily=Helvetica;fontSize=12;fontColor=default;labelBackgroundColor=default;startSize=8;endArrow=classic;endSize=8;" edge="1" parent="1" source="XUvlI8r9rAUjjNbDGMf4-172" target="XUvlI8r9rAUjjNbDGMf4-169">
          <mxGeometry relative="1" as="geometry" />
        </mxCell>
        <mxCell id="XUvlI8r9rAUjjNbDGMf4-178" value="[API B3 disponível]" style="edgeLabel;html=1;align=center;verticalAlign=middle;resizable=0;points=[];fontSize=12;fontFamily=Helvetica;fontColor=default;labelBackgroundColor=default;" vertex="1" connectable="0" parent="XUvlI8r9rAUjjNbDGMf4-176">
          <mxGeometry x="-0.1912" relative="1" as="geometry">
            <mxPoint as="offset" />
          </mxGeometry>
        </mxCell>
        <mxCell id="XUvlI8r9rAUjjNbDGMf4-180" style="edgeStyle=none;shape=connector;curved=0;rounded=1;orthogonalLoop=1;jettySize=auto;html=1;exitX=1;exitY=0.5;exitDx=0;exitDy=0;strokeColor=default;align=center;verticalAlign=middle;fontFamily=Helvetica;fontSize=12;fontColor=default;labelBackgroundColor=default;startSize=8;endArrow=none;endSize=8;endFill=0;" edge="1" parent="1" source="XUvlI8r9rAUjjNbDGMf4-172">
          <mxGeometry relative="1" as="geometry">
            <mxPoint x="1483" y="2307" as="targetPoint" />
            <Array as="points">
              <mxPoint x="1625" y="1921" />
              <mxPoint x="1623" y="2229" />
              <mxPoint x="1483" y="2259" />
            </Array>
          </mxGeometry>
        </mxCell>
        <mxCell id="XUvlI8r9rAUjjNbDGMf4-172" value="" style="rhombus;whiteSpace=wrap;html=1;" vertex="1" parent="1">
          <mxGeometry x="1464" y="1909" width="39.25" height="23" as="geometry" />
        </mxCell>
        <mxCell id="XUvlI8r9rAUjjNbDGMf4-173" value="[API B3 indisponível]" style="edgeLabel;html=1;align=center;verticalAlign=middle;resizable=0;points=[];fontSize=12;fontFamily=Helvetica;fontColor=default;labelBackgroundColor=default;" vertex="1" connectable="0" parent="1">
          <mxGeometry x="1562.9971784687982" y="1910.9984519611094" as="geometry" />
        </mxCell>
        <mxCell id="XUvlI8r9rAUjjNbDGMf4-185" style="edgeStyle=none;shape=connector;curved=0;rounded=1;orthogonalLoop=1;jettySize=auto;html=1;exitX=0;exitY=0.5;exitDx=0;exitDy=0;entryX=1;entryY=0.5;entryDx=0;entryDy=0;strokeColor=default;align=center;verticalAlign=middle;fontFamily=Helvetica;fontSize=12;fontColor=default;labelBackgroundColor=default;startSize=8;endArrow=classic;endSize=8;" edge="1" parent="1" source="XUvlI8r9rAUjjNbDGMf4-181" target="XUvlI8r9rAUjjNbDGMf4-184">
          <mxGeometry relative="1" as="geometry" />
        </mxCell>
        <mxCell id="XUvlI8r9rAUjjNbDGMf4-181" value="Seleciona filtros (período, tipo, ação, etc.)" style="rounded=1;whiteSpace=wrap;html=1;" vertex="1" parent="1">
          <mxGeometry x="-252" y="1746.5" width="120" height="60" as="geometry" />
        </mxCell>
        <mxCell id="XUvlI8r9rAUjjNbDGMf4-186" style="edgeStyle=none;shape=connector;curved=0;rounded=1;orthogonalLoop=1;jettySize=auto;html=1;exitX=0.5;exitY=1;exitDx=0;exitDy=0;strokeColor=default;align=center;verticalAlign=middle;fontFamily=Helvetica;fontSize=12;fontColor=default;labelBackgroundColor=default;startSize=8;endArrow=classic;endSize=8;entryX=0;entryY=0;entryDx=0;entryDy=0;" edge="1" parent="1" source="XUvlI8r9rAUjjNbDGMf4-184" target="XUvlI8r9rAUjjNbDGMf4-61">
          <mxGeometry relative="1" as="geometry">
            <mxPoint x="-47" y="3306.555555555555" as="targetPoint" />
            <Array as="points">
              <mxPoint x="-480" y="3045" />
              <mxPoint x="192" y="3048" />
            </Array>
          </mxGeometry>
        </mxCell>
        <mxCell id="XUvlI8r9rAUjjNbDGMf4-184" value="Exibe histórico de ordens efetivadas e canceladas" style="rounded=1;whiteSpace=wrap;html=1;" vertex="1" parent="1">
          <mxGeometry x="-529" y="1746.5" width="120" height="60" as="geometry" />
        </mxCell>
      </root>
    </mxGraphModel>
  </diagram>
</mxfile>
